<?xml version="1.0" encoding="UTF-8" standalone="no"?>
<!-- Created with Inkscape (http://www.inkscape.org/) -->
<svg
   xmlns:dc="http://purl.org/dc/elements/1.1/"
   xmlns:cc="http://creativecommons.org/ns#"
   xmlns:rdf="http://www.w3.org/1999/02/22-rdf-syntax-ns#"
   xmlns:svg="http://www.w3.org/2000/svg"
   xmlns="http://www.w3.org/2000/svg"
   xmlns:sodipodi="http://sodipodi.sourceforge.net/DTD/sodipodi-0.dtd"
   xmlns:inkscape="http://www.inkscape.org/namespaces/inkscape"
   width="44"
   height="44"
   id="svg2883"
   version="1.0"
   inkscape:version="0.46"
   sodipodi:docname="p1d80.svg"
   inkscape:export-filename="/home/javsmo/Desktop/images/milkshake-icon.png"
   inkscape:export-xdpi="90"
   inkscape:export-ydpi="90"
   sodipodi:version="0.32"
   inkscape:output_extension="org.inkscape.output.svg.inkscape">
  <defs
     id="defs2885">
    <inkscape:path-effect
       effect="gears"
       id="path-effect3311"
       teeth="10" />
    <inkscape:path-effect
       effect="bend_path"
       id="path-effect3309"
       bendpath="M 15.6774,373.625 L 25.4587,373.625 "
       prop_scale="1"
       scale_y_rel="false" />
    <inkscape:perspective
       sodipodi:type="inkscape:persp3d"
       inkscape:vp_x="0 : 526.18109 : 1"
       inkscape:vp_y="0 : 1000 : 0"
       inkscape:vp_z="744.09448 : 526.18109 : 1"
       inkscape:persp3d-origin="372.04724 : 350.78739 : 1"
       id="perspective2891" />
    <inkscape:perspective
       id="perspective2975"
       inkscape:persp3d-origin="0.5 : 0.33333333 : 1"
       inkscape:vp_z="1 : 0.5 : 1"
       inkscape:vp_y="0 : 1000 : 0"
       inkscape:vp_x="0 : 0.5 : 1"
       sodipodi:type="inkscape:persp3d" />
  </defs>
  <sodipodi:namedview
     id="base"
     pagecolor="#ffffff"
     bordercolor="#666666"
     borderopacity="1.0"
     inkscape:pageopacity="0.0"
     inkscape:pageshadow="2"
     inkscape:zoom="11.909091"
     inkscape:cx="22"
     inkscape:cy="22.424499"
     inkscape:document-units="px"
     inkscape:current-layer="layer1"
     showgrid="true"
     inkscape:window-width="1024"
     inkscape:window-height="712"
     inkscape:window-x="0"
     inkscape:window-y="22"
     inkscape:window-maximized="1"
     inkscape:snap-global="false"
     showguides="true"
     inkscape:guide-bbox="true">
    <inkscape:grid
       type="xygrid"
       id="grid2397"
       visible="true"
       enabled="true" />
  </sodipodi:namedview>
  <metadata
     id="metadata2888">
    <rdf:RDF>
      <cc:Work
         rdf:about="">
        <dc:format>image/svg+xml</dc:format>
        <dc:type
           rdf:resource="http://purl.org/dc/dcmitype/StillImage" />
        <dc:title />
      </cc:Work>
    </rdf:RDF>
  </metadata>
  <g
     inkscape:label="Layer 1"
     inkscape:groupmode="layer"
     id="layer1"
     transform="translate(0,-352.36218)">
    <text
       xml:space="preserve"
       style="font-size:40px;font-style:normal;font-weight:normal;fill:#f44800;fill-opacity:1;stroke:none;stroke-width:1px;stroke-linecap:butt;stroke-linejoin:miter;stroke-opacity:1;font-family:Bitstream Vera Sans"
       x="18.051283"
       y="16.836292"
       id="text3313"
       transform="translate(0,352.36218)"><tspan
         sodipodi:role="line"
         id="tspan3315" /></text>
    <path
       style="fill:#f44800"
       d="M 19.234404,383.10143 L 15.515654,394.50768 C 17.960744,395.30049 20.133801,395.62846 22.703154,395.53893 L 22.296904,383.63268 C 21.222502,383.62228 20.195393,383.4337 19.234404,383.10143 z"
       id="path2419" />
    <path
       style="fill:#cccccf"
       d="M 27.765654,382.00768 C 26.877468,382.60181 25.893333,383.04522 24.828154,383.32018 L 28.484404,394.50768 C 30.929494,393.71486 32.895993,392.68097 34.921904,391.10143 L 27.796904,382.00768 C 27.790089,382.01226 27.772482,382.00311 27.765654,382.00768 z"
       id="path2421" />
    <path
       style="fill:#cccccf"
       d="M 31.453154,377.32018 C 31.064456,378.39526 30.493487,379.36936 29.765654,380.22643 L 38.984404,386.91393 C 40.495552,384.83831 41.463264,382.84888 42.171904,380.38268 L 31.453154,377.32018 z"
       id="path2423" />
    <path
       style="fill:#f44800"
       d="M 41.703154,367.47643 L 31.546904,371.16393 C 31.847779,372.08685 32.015654,373.07939 32.015654,374.10143 C 32.015654,374.28179 31.994396,374.45479 31.984404,374.63268 L 42.984404,374.63268 C 42.984404,373.43992 42.88048,372.31373 42.703154,371.22643 C 42.689036,371.14351 42.686993,371.05901 42.671904,370.97643 C 42.645806,370.82872 42.607806,370.68617 42.578154,370.53893 C 42.377995,369.545 42.106355,368.56761 41.734404,367.53893 C 41.726276,367.51675 41.711355,367.49857 41.703154,367.47643 z"
       id="path2425" />
    <path
       style="fill:#f44800"
       d="M 33.515654,357.28893 L 27.578154,366.07018 C 28.605469,366.72274 29.492099,367.55931 30.203154,368.53893 L 38.734404,362.32018 C 37.223255,360.24456 35.647044,358.72359 33.515654,357.28893 z"
       id="path2427" />
    <path
       style="fill:#f44800"
       d="M 22.015654,353.75768 C 21.694887,353.75768 21.364183,353.77465 21.046904,353.78893 L 21.453154,364.63268 C 21.766238,364.60217 22.069308,364.57018 22.390654,364.57018 C 23.2751,364.57018 24.139406,364.69245 24.953154,364.91393 L 28.265654,354.72643 C 27.762161,354.56317 27.284543,354.44305 26.796904,354.32018 C 26.612034,354.27699 26.421107,354.23344 26.234404,354.19518 C 25.551228,354.05518 24.877377,353.92319 24.171904,353.85143 C 23.466431,353.77966 22.73989,353.75768 22.015654,353.75768 z"
       id="path2429" />
    <path
       style="fill:#f44800"
       d="M 14.765654,379.88268 L 5.0156544,386.91393 C 6.5268026,388.98954 8.1342661,390.54176 10.265654,391.97643 L 17.015654,382.00768 C 16.15067,381.42698 15.397676,380.70534 14.765654,379.88268 z"
       id="path2431" />
    <path
       style="fill:#f44800"
       d="M 15.546904,354.78893 C 13.195418,355.55083 11.048162,356.73862 9.1406544,358.22643 L 16.015654,367.00768 C 16.867151,366.25078 17.836581,365.64405 18.921904,365.22643 L 15.546904,354.78893 z"
       id="path2433" />
    <path
       style="fill:#f44800"
       d="M 5.0781544,362.38268 C 3.73019,364.22484 2.6469524,366.27968 1.9531544,368.50768 C 1.9180501,368.62041 1.892649,368.73789 1.8594044,368.85143 L 13.015654,372.07018 C 13.254355,370.98199 13.688284,369.9531 14.265654,369.03893 L 5.0781544,362.38268 z"
       id="path2435" />
    <path
       style="fill:#f44800"
       d="M 1.0156544,374.63268 C 1.0156544,374.64352 1.0156407,374.6531 1.0156544,374.66393 C 1.0155197,374.69491 1.0156544,374.72666 1.0156544,374.75768 C 1.0219524,375.99084 1.129046,377.13081 1.3281544,378.25768 C 1.5342304,379.42397 1.8572513,380.58349 2.2969044,381.78893 L 13.515654,377.72643 C 13.120188,376.76768 12.888701,375.7183 12.828154,374.63268 L 1.0156544,374.63268 z"
       id="path2437" />
    <text
       xml:space="preserve"
       style="font-size:40px;font-style:normal;font-weight:normal;fill:#f44800;fill-opacity:1;stroke:none;stroke-width:1px;stroke-linecap:butt;stroke-linejoin:miter;stroke-opacity:1;font-family:Bitstream Vera Sans"
       x="18.066936"
       y="369.59396"
       id="text2439"><tspan
         sodipodi:role="line"
         id="tspan2441"
         x="18.066936"
         y="369.59396" /></text>
    <path
       id="path2781"
       d="M 5.0781544,362.38268 C 3.73019,364.22484 2.6469524,366.27968 1.9531544,368.50768 C 1.9180501,368.62041 1.892649,368.73789 1.8594044,368.85143 L 13.015654,372.07018 C 13.254355,370.98199 13.688284,369.9531 14.265654,369.03893 L 5.0781544,362.38268 z"
       style="fill:#f44800" />
  </g>
</svg>
