<?xml version="1.0" encoding="UTF-8" standalone="no"?>
<!-- Created with Inkscape (http://www.inkscape.org/) -->

<svg
   xmlns:dc="http://purl.org/dc/elements/1.1/"
   xmlns:cc="http://creativecommons.org/ns#"
   xmlns:rdf="http://www.w3.org/1999/02/22-rdf-syntax-ns#"
   xmlns:svg="http://www.w3.org/2000/svg"
   xmlns="http://www.w3.org/2000/svg"
   xmlns:xlink="http://www.w3.org/1999/xlink"
   xmlns:sodipodi="http://sodipodi.sourceforge.net/DTD/sodipodi-0.dtd"
   xmlns:inkscape="http://www.inkscape.org/namespaces/inkscape"
   width="700"
   height="700"
   id="svg2"
   version="1.1"
   inkscape:version="0.47pre4 r22446"
   sodipodi:docname="milkshake-icon.svg"
   inkscape:export-filename="/home/javsmo/Desktop/milkshake-icon.png"
   inkscape:export-xdpi="90"
   inkscape:export-ydpi="90">
  <defs
     id="defs4">
    <linearGradient
       id="linearGradient4776">
      <stop
         style="stop-color:#ff6600;stop-opacity:1;"
         offset="0"
         id="stop4778" />
      <stop
         id="stop4784"
         offset="0.82352942"
         style="stop-color:#ff6600;stop-opacity:1;" />
      <stop
         style="stop-color:#a34100;stop-opacity:1;"
         offset="1"
         id="stop4780" />
    </linearGradient>
    <inkscape:path-effect
       effect="spiro"
       id="path-effect4206"
       is_visible="true" />
    <linearGradient
       id="linearGradient4151">
      <stop
         style="stop-color:#be0000;stop-opacity:1;"
         offset="0"
         id="stop4153" />
      <stop
         style="stop-color:#780000;stop-opacity:1;"
         offset="1"
         id="stop4155" />
    </linearGradient>
    <inkscape:perspective
       sodipodi:type="inkscape:persp3d"
       inkscape:vp_x="0 : 526.18109 : 1"
       inkscape:vp_y="0 : 1000 : 0"
       inkscape:vp_z="744.09448 : 526.18109 : 1"
       inkscape:persp3d-origin="372.04724 : 350.78739 : 1"
       id="perspective10" />
    <inkscape:perspective
       id="perspective3897"
       inkscape:persp3d-origin="0.5 : 0.33333333 : 1"
       inkscape:vp_z="1 : 0.5 : 1"
       inkscape:vp_y="0 : 1000 : 0"
       inkscape:vp_x="0 : 0.5 : 1"
       sodipodi:type="inkscape:persp3d" />
    <inkscape:perspective
       id="perspective4063"
       inkscape:persp3d-origin="0.5 : 0.33333333 : 1"
       inkscape:vp_z="1 : 0.5 : 1"
       inkscape:vp_y="0 : 1000 : 0"
       inkscape:vp_x="0 : 0.5 : 1"
       sodipodi:type="inkscape:persp3d" />
    <inkscape:perspective
       id="perspective4137"
       inkscape:persp3d-origin="0.5 : 0.33333333 : 1"
       inkscape:vp_z="1 : 0.5 : 1"
       inkscape:vp_y="0 : 1000 : 0"
       inkscape:vp_x="0 : 0.5 : 1"
       sodipodi:type="inkscape:persp3d" />
    <inkscape:perspective
       id="perspective4276"
       inkscape:persp3d-origin="0.5 : 0.33333333 : 1"
       inkscape:vp_z="1 : 0.5 : 1"
       inkscape:vp_y="0 : 1000 : 0"
       inkscape:vp_x="0 : 0.5 : 1"
       sodipodi:type="inkscape:persp3d" />
    <filter
       inkscape:collect="always"
       id="filter4394">
      <feGaussianBlur
         inkscape:collect="always"
         stdDeviation="1.650186"
         id="feGaussianBlur4396" />
    </filter>
    <filter
       inkscape:collect="always"
       id="filter4409">
      <feGaussianBlur
         inkscape:collect="always"
         stdDeviation="1.7352483"
         id="feGaussianBlur4411" />
    </filter>
  </defs>
  <sodipodi:namedview
     id="base"
     pagecolor="#ffffff"
     bordercolor="#666666"
     borderopacity="1.0"
     inkscape:pageopacity="0.0"
     inkscape:pageshadow="2"
     inkscape:zoom="0.34071429"
     inkscape:cx="676.38515"
     inkscape:cy="350.26163"
     inkscape:document-units="px"
     inkscape:current-layer="layer1"
     showgrid="false"
     inkscape:window-width="1280"
     inkscape:window-height="729"
     inkscape:window-x="0"
     inkscape:window-y="24"
     inkscape:window-maximized="1" />
  <metadata
     id="metadata7">
    <rdf:RDF>
      <cc:Work
         rdf:about="">
        <dc:format>image/svg+xml</dc:format>
        <dc:type
           rdf:resource="http://purl.org/dc/dcmitype/StillImage" />
        <dc:title></dc:title>
      </cc:Work>
    </rdf:RDF>
  </metadata>
  <g
     inkscape:label="Camada 1"
     inkscape:groupmode="layer"
     id="layer1"
     transform="translate(0,-352.36218)">
    <path
       sodipodi:type="arc"
       style="fill:#ffcc00;fill-opacity:1;stroke:none"
       id="path4746"
       sodipodi:cx="326.87012"
       sodipodi:cy="413.59952"
       sodipodi:rx="291.5889"
       sodipodi:ry="244.89317"
       d="m 618.45901,413.59952 c 0,135.25076 -130.54879,244.89317 -291.58889,244.89317 -161.0401,0 -291.588901,-109.64241 -291.588901,-244.89317 0,-135.25077 130.548801,-244.89318 291.588901,-244.89318 161.0401,0 291.58889,109.64241 291.58889,244.89318 z"
       transform="matrix(0.99031646,0.75051271,-0.54975318,1.0704808,238.84437,10.441779)" />
    <path
       style="fill:#ffffff;fill-opacity:1;stroke:#000000;stroke-width:4;stroke-linecap:round;stroke-linejoin:round;stroke-miterlimit:4;stroke-opacity:1;stroke-dasharray:none"
       d="m 367.17569,646.88705 c 4.57148,-6.61513 13.87276,-8.26975 21.347,-11.23525 13.00645,-5.16049 26.60625,-9.17767 40.44694,-11.23527 26.77198,-3.97999 54.14909,-3.44644 81.17478,-1.96618 11.22507,0.61483 22.4804,1.92545 33.4249,4.49412 10.20397,2.39485 21.16602,4.13108 29.77345,10.11174 5.35579,3.72133 9.98032,9.09505 12.35879,15.1676 4.3451,11.09363 5.16886,24.12156 2.24706,35.67195 -33.0094,80.62844 -28.49264,188.98111 -75.83804,206.72884 -4.79565,4.71719 -9.8563,10.05315 -11.51613,16.572 -1.27816,5.01989 -0.92537,10.97442 1.68528,15.44849 7.84406,13.44291 29.09393,14.42527 37.91901,27.24552 3.95319,5.74282 7.76385,13.68765 5.33676,20.22347 -2.64893,7.13324 -11.96909,9.60733 -18.81907,12.92056 -7.14491,3.45588 -14.89982,5.8621 -22.75141,7.02203 -15.37551,2.27145 -31.27315,2.13692 -46.62633,-0.28088 -9.50643,-1.49706 -19.59885,-3.25139 -27.52641,-8.70732 -3.84242,-2.64446 -7.38438,-6.48145 -8.70733,-10.95439 -0.82703,-2.79626 -0.47569,-6.10636 0.84266,-8.70733 7.43491,-14.66815 27.31211,-19.42818 36.79548,-32.86314 2.85755,-4.04823 5.32146,-8.81689 5.61763,-13.7632 0.29596,-4.94277 -1.0639,-10.28879 -3.93233,-14.32496 -4.01688,-5.65212 -10.74757,-9.09554 -17.13379,-11.79702 -45.75463,-39.35044 -49.40418,-144.05131 -78.36595,-202.23472 -1.73436,-5.15958 -1.2711,-10.84986 -1.12353,-16.29114 0.2481,-9.14771 -1.83195,-19.7172 3.37058,-27.24552 z"
       id="path4282"
       sodipodi:nodetypes="cssssssccsssssssssssssccss" />
    <path
       style="fill:#ffaacc;stroke:none"
       d="m 384.98341,674.15268 c 6.56742,63.33052 23.05082,114.74267 43.69492,169.21849 5.1622,13.62205 8.5174,29.78907 19.86134,38.9282 8.10312,6.52822 19.79983,7.36204 30.18921,7.94453 10.95596,0.61426 22.93556,0.48098 32.57257,-4.76672 9.8891,-5.38497 17.12449,-15.39375 22.24468,-25.42249 17.78953,-34.84372 19.49831,-75.8602 26.21696,-114.40124 3.80201,-21.80991 7.86472,-44.70894 7.94453,-65.93961 0.0232,-6.20482 -6.8529,-10.71442 -11.9168,-14.30014 -9.91572,-7.02129 -22.27217,-10.20834 -34.16148,-12.71126 -17.65183,-3.71601 -35.98888,-3.59377 -54.02281,-3.17782 -20.23194,0.46665 -41.70937,-1.45565 -60.37843,6.35563 -8.85214,3.7038 -23.23446,8.72785 -22.24469,18.27243 z"
       id="path4338"
       sodipodi:nodetypes="cssssssssssss" />
    <path
       transform="matrix(-1.1854426,0.42008745,0.42008745,1.1854426,703.0703,-209.02267)"
       style="opacity:0.5;fill:#d40055;fill-opacity:1;stroke:none;filter:url(#filter4409)"
       d="m 439.73808,689.79405 c 30.33541,36.42645 7.78002,47.09027 -4.46033,40.52067 -33.14733,-17.79073 -46.23011,-63.87731 -46.23011,-98.04357 18.88169,-30.25075 -1.26153,1.17441 50.69044,57.5229 z"
       id="path4415"
       sodipodi:nodetypes="cccc" />
    <path
       sodipodi:nodetypes="cccc"
       id="path4413"
       d="m 439.73808,689.79405 c 30.33541,36.42645 7.78002,47.09027 -4.46033,40.52067 -33.14733,-17.79073 -46.23011,-63.87731 -46.23011,-98.04357 18.88169,-30.25075 -1.26153,1.17441 50.69044,57.5229 z"
       style="opacity:0.5;fill:#d40055;fill-opacity:1;stroke:none;filter:url(#filter4409)"
       transform="matrix(-1.2576755,0,0,1.2576755,1047.4434,-93.532964)" />
    <path
       style="opacity:0.5;fill:#d40055;fill-opacity:1;stroke:none;filter:url(#filter4409)"
       d="m 503.84126,625.12446 c -5.19588,24.56231 -24.7584,62.18987 -45.7898,74.04961 -17.90471,15.43307 -10.53336,37.71025 -22.77371,31.14065 -33.14733,-17.79073 -46.23011,-63.87731 -46.23011,-98.04357 0,-34.16627 16.65024,-6.03002 54.27013,-6.03002 37.61989,0 64.6995,-20.85774 60.52349,-1.11667 z"
       id="path4398"
       sodipodi:nodetypes="cccsss"
       transform="matrix(1.2576755,0,0,1.2576755,-90.0995,-98.027064)" />
    <g
       id="g4340"
       style="filter:url(#filter4394)"
       transform="matrix(1.2576755,0,0,1.2576755,-90.0995,-98.027064)">
      <path
         style="fill:none;stroke:#ffffff;stroke-width:3.73722982;stroke-linecap:round;stroke-linejoin:round;stroke-miterlimit:4;stroke-opacity:1;stroke-dasharray:none"
         d="m 485.03026,663.97502 c 0,0 -10.42915,73.31252 -7.07303,100.61007 0.48444,3.94029 5.52354,6.54068 9.03777,6.20503 3.97803,-0.37995 7.72316,-4.61246 9.03777,-8.86433 12.39328,-40.08415 25.54151,-140.94273 25.54151,-140.94273"
         id="path4336"
         sodipodi:nodetypes="cssss" />
      <path
         style="fill:none;stroke:#ffffff;stroke-width:4;stroke-linecap:round;stroke-linejoin:round;stroke-miterlimit:4;stroke-opacity:1;stroke-dasharray:none"
         d="m 374.28759,604.54771 c -5.2445,1.0489 27.38849,16.80247 52.26013,18.31338 26.16684,1.58959 53.05421,3.59345 78.61353,-2.23334 12.36746,-2.48471 25.99404,-5.92489 27.24674,-20.10005"
         id="path4330"
         sodipodi:nodetypes="cscc" />
      <path
         style="fill:none;stroke:#ffffff;stroke-width:4;stroke-linecap:round;stroke-linejoin:round;stroke-miterlimit:4;stroke-opacity:1;stroke-dasharray:none"
         d="m 386.93099,630.19478 c 0,0 20.21428,94.00421 39.52352,135.37208"
         id="path4332"
         sodipodi:nodetypes="cs" />
      <path
         sodipodi:nodetypes="cs"
         id="path4334"
         d="m 441.88746,637.77498 c 0,0 3.15883,94.00421 12.36113,134.10872"
         style="fill:none;stroke:#ffffff;stroke-width:4;stroke-linecap:round;stroke-linejoin:round;stroke-miterlimit:4;stroke-opacity:1;stroke-dasharray:none" />
    </g>
    <path
       sodipodi:nodetypes="ccc"
       id="path4453"
       d="m 439.73808,689.79405 c 30.33541,36.42645 17.32525,38.34518 -4.46033,40.52067 -45.73616,-57.28005 -79.49846,-150.00044 4.46033,-40.52067 z"
       style="opacity:0.5;fill:#d40055;fill-opacity:1;stroke:none;filter:url(#filter4409)"
       transform="matrix(1.2569886,0.04156258,-0.04156258,1.2569886,-52.564237,-94.957674)"
       inkscape:transform-center-x="6"
       inkscape:transform-center-y="-18" />
    <path
       style="fill:none;stroke:#000000;stroke-width:4;stroke-linecap:round;stroke-linejoin:round;stroke-miterlimit:4;stroke-opacity:1;stroke-dasharray:none"
       d="m 375.60213,654.75174 c -6.59588,1.31917 34.44584,21.13205 65.72629,23.03229 32.90939,1.99919 66.72498,4.5194 98.87031,-2.80882 15.55426,-3.12496 32.69207,-7.45159 34.26756,-25.27934"
       id="path4296"
       sodipodi:nodetypes="cscc" />
    <g
       id="g4493"
       style="stroke-width:3;stroke-miterlimit:4;stroke-dasharray:none"
       transform="matrix(0.8829799,0,0,0.8829799,38.138929,174.70499)">
      <path
         sodipodi:nodetypes="cc"
         id="path4290"
         d="m 384.73158,614.28631 c 5.64505,-0.94291 13.92706,2.90433 17.17775,9.54318"
         style="fill:none;stroke:#000000;stroke-width:3;stroke-linecap:round;stroke-linejoin:round;stroke-miterlimit:4;stroke-opacity:1;stroke-dasharray:none" />
      <path
         sodipodi:nodetypes="cc"
         id="path4292"
         d="m 419.08708,628.91919 c 10.91997,-3.23659 15.22235,-16.39962 45.17112,8.90698"
         style="fill:none;stroke:#000000;stroke-width:3;stroke-linecap:round;stroke-linejoin:round;stroke-miterlimit:4;stroke-opacity:1;stroke-dasharray:none" />
      <path
         sodipodi:nodetypes="cc"
         id="path4294"
         d="m 500.52232,633.37269 c 18.15829,-8.72227 35.0323,-21.29738 62.98507,-0.63622"
         style="fill:none;stroke:#000000;stroke-width:3;stroke-linecap:round;stroke-linejoin:round;stroke-miterlimit:4;stroke-opacity:1;stroke-dasharray:none" />
    </g>
    <g
       id="g4498"
       style="stroke:#000000;stroke-width:3;stroke-miterlimit:4;stroke-opacity:1;stroke-dasharray:none"
       transform="matrix(0.8829799,0,0,0.8829799,38.138929,174.70499)">
      <path
         sodipodi:nodetypes="csss"
         id="path4284"
         d="m 395.54721,579.2946 c 0,0 23.39384,129.39652 50.89703,188.31899 5.79784,12.42122 10.02665,31.41832 23.53987,33.71927 6.44033,1.09663 15.90532,-11.45183 15.90532,-11.45183"
         style="fill:none;stroke:#000000;stroke-width:3;stroke-linecap:round;stroke-linejoin:round;stroke-miterlimit:4;stroke-opacity:1;stroke-dasharray:none" />
      <path
         sodipodi:nodetypes="csss"
         id="path4286"
         d="m 471.89275,604.10689 c 4.66366,-0.42397 5.01902,127.56697 20.35881,183.22929 1.79682,6.51998 8.51597,13.72621 15.26911,13.36048 7.19363,-0.38959 14.6329,-15.90533 14.6329,-15.90533"
         style="fill:none;stroke:#000000;stroke-width:3;stroke-linecap:round;stroke-linejoin:round;stroke-miterlimit:4;stroke-opacity:1;stroke-dasharray:none" />
      <path
         sodipodi:nodetypes="cssss"
         id="path4288"
         d="m 539.96751,640.37102 c 0,0 -16.88566,105.23615 -11.45183,144.42031 0.78435,5.65607 8.94308,9.38879 14.6329,8.90699 6.44077,-0.5454 12.50444,-6.62094 14.6329,-12.72427 20.06575,-57.53864 41.35384,-202.31567 41.35384,-202.31567"
         style="fill:none;stroke:#000000;stroke-width:3;stroke-linecap:round;stroke-linejoin:round;stroke-miterlimit:4;stroke-opacity:1;stroke-dasharray:none" />
    </g>
    <g
       id="g4756"
       transform="translate(39.622642,24.947589)">
      <g
         id="g4752">
        <path
           transform="translate(247.27463,358.96595)"
           d="m 135.01048,135.74423 c 0,11.34673 -21.3533,20.54507 -47.693921,20.54507 -26.340625,0 -47.69392,-9.19834 -47.69392,-20.54507 0,-11.34673 21.353295,-20.54507 47.69392,-20.54507 26.340621,0 47.693921,9.19834 47.693921,20.54507 z"
           sodipodi:ry="20.545073"
           sodipodi:rx="47.69392"
           sodipodi:cy="135.74423"
           sodipodi:cx="87.316559"
           id="path4750"
           style="fill:#000000;fill-opacity:1;stroke:none"
           sodipodi:type="arc" />
        <path
           sodipodi:type="arc"
           style="fill:#000000;fill-opacity:1;stroke:none"
           id="path4748"
           sodipodi:cx="87.316559"
           sodipodi:cy="135.74423"
           sodipodi:rx="47.69392"
           sodipodi:ry="20.545073"
           d="m 135.01048,135.74423 c 0,11.34673 -21.3533,20.54507 -47.693921,20.54507 -26.340625,0 -47.69392,-9.19834 -47.69392,-20.54507 0,-11.34673 21.353295,-20.54507 47.69392,-20.54507 26.340621,0 47.693921,9.19834 47.693921,20.54507 z"
           transform="translate(0,352.36218)" />
      </g>
      <g
         transform="translate(-8.8050314,-44.025157)"
         id="g4664">
        <g
           id="g3975"
           transform="matrix(1.4338755,0,0,1.4338755,-8.0099571,-114.37591)">
          <g
             id="g3962">
            <path
               style="fill:#ffffff;stroke:#000000;stroke-width:4;stroke-linecap:round;stroke-linejoin:round;stroke-miterlimit:4;stroke-opacity:1;stroke-dasharray:none"
               d="m 130.4375,24.875 c -0.95007,0.03036 -1.88079,0.184116 -2.75,0.4375 C 115.89775,28.749311 106.02931,39.687702 101.25,51 c -3.902676,9.237367 -2.650383,20.422385 0,30.09375 1.01441,3.701622 11.12489,13.444559 5.875,9.90625 C 102.18028,87.523652 99.663633,81.401988 94.65625,78.15625 88.974967,74.473697 82.202902,72.507818 75.5625,71.1875 67.038866,69.492737 58.119858,68.735707 49.53125,70.0625 c -4.243836,0.6556 -8.479642,2.136598 -12.125,4.40625 -3.597743,2.240006 -6.933288,5.2042 -9.15625,8.8125 -2.617385,4.248526 -4.412291,9.322446 -4.40625,14.3125 0.009,7.42666 2.044968,15.41065 6.59375,21.28125 2.993314,3.86313 7.788116,6.39063 12.5,7.6875 7.311226,2.0123 15.33822,1.39727 22.71875,-0.34375 8.248053,-1.94566 16.201519,-5.3034 23.6875,-9.46875 -0.507113,0.68935 -0.928925,1.40704 -1.28125,2.125 -3.449094,32.97302 -20.548589,91.93928 -24.96875,127.65625 -2.482889,22.11016 3.589644,38.43852 22.03125,44.03125 38.33179,11.62477 81.87611,12.37894 107.125,8.8125 20.21007,-2.8547 38.21337,-17.60414 40.34375,-43.28125 -1.58628,-29.55476 -10.77957,-109.89351 -11.33189,-143.54691 3.2478,1.58547 11.74798,12.92384 16.30064,16.23441 12.20738,5.52365 26.44645,7.7359 38.6875,3.28125 5.33509,-1.9415 10.61185,-5.96723 12.84375,-11.1875 2.0935,-4.89657 1.62901,-11.15763 -0.71875,-15.9375 -4.66664,-9.500949 -14.15821,-17.271441 -24.21875,-20.5625 -17.55768,-3.386393 -40.26509,1.123581 -53.5625,13.21875 5.72988,-9.001064 13.32508,-15.971776 16.125,-25.6875 1.96414,-6.815569 2.41462,-14.611958 0,-21.28125 -2.60121,-7.184666 -7.80276,-14.215093 -14.65625,-17.59375 -3.43047,-1.691168 -8.14115,-3.338689 -12.1875,-3.21875 -2.42781,0.07196 -4.60345,0.77908 -6.15625,2.46875 -4.00289,4.355734 1.69707,11.729661 2.1875,17.625 0.48707,5.85489 2.45655,11.971947 0.75,17.59375 -2.28781,7.536628 -13.8398,11.218136 -13.9375,19.09375 -0.0778,6.272589 2.03783,10.512087 5.4375,13.90625 -27.44791,-5.408871 -61.46622,-2.555143 -82.25,5.46875 10.07113,-6.869105 21.31722,-14.228682 23.96875,-25.625 0.43818,-1.883305 -1.51416,-3.594689 -1.84375,-5.5 -1.00078,-5.785372 -1.97489,-11.984833 -0.34375,-17.625 2.28036,-7.885039 12.44082,-12.400093 13.5625,-20.53125 0.43866,-3.179908 -0.55095,-7.009478 -2.9375,-9.15625 -2.0194,-1.816508 -5.02479,-2.747333 -7.875,-2.65625 z M 63.101874,91.357508 c 5.781786,0.888745 37.123826,-2.076338 31.171252,2.919353 -6.963546,3.95222 -16.083969,9.819319 -21.638758,11.754389 -7.16847,2.49721 -14.898134,3.53366 -20.915618,-1.09375 -2.238097,-1.72108 -3.621261,-5.476456 -2.5625,-8.09375 2.799385,-5.319263 8.072179,-5.664225 13.945624,-5.486242 z M 247.4375,98.8125 c 3.10326,-0.09601 6.15751,0.23762 9,1.34375 3.14392,1.22343 7.30051,3.59545 7.34375,6.96875 0.0399,3.1128 -3.65667,5.56194 -6.59375,6.59375 -13.69715,4.81185 -28.94244,-3.56415 -43.3125,-4.75 9.26103,-6.57712 14.05836,-6.9398 21.65625,-8.4375 3.84756,-0.758433 7.91635,-1.595309 11.90625,-1.71875 z"
               transform="translate(0,352.36218)"
               id="path3907"
               sodipodi:nodetypes="cssscssssssssscccsscccsssccssssssssccssssscccsscccssscsc" />
            <path
               sodipodi:type="arc"
               style="fill:#ffffff;fill-rule:evenodd;stroke:#000000;stroke-width:3.7010498;stroke-linecap:butt;stroke-linejoin:miter;stroke-miterlimit:4;stroke-opacity:1;stroke-dasharray:none"
               id="path3909"
               sodipodi:cx="113.36478"
               sodipodi:cy="227.83018"
               sodipodi:rx="9.1719074"
               sodipodi:ry="9.1719074"
               d="m 122.53668,227.83018 c 0,5.06551 -4.1064,9.17191 -9.1719,9.17191 -5.06551,0 -9.17191,-4.1064 -9.17191,-9.17191 0,-5.0655 4.1064,-9.1719 9.17191,-9.1719 5.0655,0 9.1719,4.1064 9.1719,9.1719 z"
               transform="matrix(0.59695802,0.25800208,-0.40082389,0.92741514,136.64367,359.46216)" />
            <path
               transform="matrix(0.59695802,0.25800208,-0.40082389,0.92741514,193.87637,362.39717)"
               d="m 122.53668,227.83018 c 0,5.06551 -4.1064,9.17191 -9.1719,9.17191 -5.06551,0 -9.17191,-4.1064 -9.17191,-9.17191 0,-5.0655 4.1064,-9.1719 9.17191,-9.1719 5.0655,0 9.1719,4.1064 9.1719,9.1719 z"
               sodipodi:ry="9.1719074"
               sodipodi:rx="9.1719074"
               sodipodi:cy="227.83018"
               sodipodi:cx="113.36478"
               id="path3911"
               style="fill:#ffffff;fill-rule:evenodd;stroke:#000000;stroke-width:3.7010498;stroke-linecap:butt;stroke-linejoin:miter;stroke-miterlimit:4;stroke-opacity:1;stroke-dasharray:none"
               sodipodi:type="arc" />
            <g
               id="g3919"
               transform="translate(23.113208,1.1006289)">
              <path
                 transform="matrix(0.87494845,0,0,0.82823874,-5.6108816,378.84189)"
                 d="m 146.38365,162.70964 c 0,10.84018 -5.50258,19.62788 -12.29036,19.62788 -6.78777,0 -12.29035,-8.7877 -12.29035,-19.62788 0,-10.84018 5.50258,-19.62788 12.29035,-19.62788 6.78778,0 12.29036,8.7877 12.29036,19.62788 z"
                 sodipodi:ry="19.627882"
                 sodipodi:rx="12.290357"
                 sodipodi:cy="162.70964"
                 sodipodi:cx="134.09329"
                 id="path3913"
                 style="fill:#ffffff;stroke:#000000;stroke-width:4;stroke-miterlimit:4;stroke-opacity:1;stroke-dasharray:none"
                 sodipodi:type="arc" />
              <path
                 transform="matrix(1.0004949,-0.36959773,0.37337925,1.3457343,-85.069547,344.68302)"
                 d="m 142.71489,168.21278 c 0,2.938 -3.86002,5.31971 -8.6216,5.31971 -4.76157,0 -8.62159,-2.38171 -8.62159,-5.31971 0,-2.93799 3.86002,-5.3197 8.62159,-5.3197 4.76158,0 8.6216,2.38171 8.6216,5.3197 z"
                 sodipodi:ry="5.3197064"
                 sodipodi:rx="8.6215935"
                 sodipodi:cy="168.21278"
                 sodipodi:cx="134.09329"
                 id="path3917"
                 style="fill:#000000;fill-opacity:1;stroke:none"
                 sodipodi:type="arc" />
            </g>
            <g
               transform="translate(60.167715,0.73375255)"
               id="g3923">
              <path
                 sodipodi:type="arc"
                 style="fill:#ffffff;stroke:#000000;stroke-width:4;stroke-miterlimit:4;stroke-opacity:1;stroke-dasharray:none"
                 id="path3925"
                 sodipodi:cx="134.09329"
                 sodipodi:cy="162.70964"
                 sodipodi:rx="12.290357"
                 sodipodi:ry="19.627882"
                 d="m 146.38365,162.70964 c 0,10.84018 -5.50258,19.62788 -12.29036,19.62788 -6.78777,0 -12.29035,-8.7877 -12.29035,-19.62788 0,-10.84018 5.50258,-19.62788 12.29035,-19.62788 6.78778,0 12.29036,8.7877 12.29036,19.62788 z"
                 transform="matrix(0.87494845,0,0,0.82823874,-5.6108816,378.84189)" />
              <path
                 sodipodi:type="arc"
                 style="fill:#000000;fill-opacity:1;stroke:none"
                 id="path3927"
                 sodipodi:cx="134.09329"
                 sodipodi:cy="168.21278"
                 sodipodi:rx="8.6215935"
                 sodipodi:ry="5.3197064"
                 d="m 142.71489,168.21278 c 0,2.938 -3.86002,5.31971 -8.6216,5.31971 -4.76157,0 -8.62159,-2.38171 -8.62159,-5.31971 0,-2.93799 3.86002,-5.3197 8.62159,-5.3197 4.76158,0 8.6216,2.38171 8.6216,5.3197 z"
                 transform="matrix(1.0004949,-0.36959773,0.37337925,1.3457343,-85.069547,344.68302)" />
            </g>
          </g>
          <path
             sodipodi:nodetypes="ccccccccccccccccccccc"
             id="path3973"
             d="m 89.547693,469.74863 c -1.820319,-3.16875 2.954442,-6.1699 12.077477,-16.9181 5.73945,-6.10341 10.92184,-13.09298 18.11621,-17.30261 4.21531,-2.46649 7.60789,-4.23721 12.45491,-4.61403 8.40838,-0.65369 16.99182,-0.77564 25.28722,0.769 11.78034,2.19355 23.41875,6.14513 33.96791,11.91958 10.19632,5.58131 25.62174,9.90512 27.55174,21.53213 0.87855,5.29262 -4.1616,10.69766 -8.68068,13.45759 -2.38366,1.45577 -5.63427,1.5583 -8.30327,0.769 -3.96317,-1.17203 -5.87679,-6.42701 -9.81294,-7.69005 -2.64263,-0.84797 -5.82366,-0.87475 -8.30327,0.3845 -4.23835,2.15244 -4.77287,9.09676 -9.05811,11.15057 -5.46426,2.6189 -13.38237,3.81963 -18.11623,0 -3.4447,-2.77944 0.18858,-10.01364 -3.01936,-13.07308 -1.67598,-1.59838 -4.5884,-1.80401 -6.79358,-1.1535 -4.53604,1.33811 -6.15555,7.89786 -10.5678,9.61256 -4.7018,1.82723 -10.91878,2.85757 -15.09685,0 -2.48277,-1.69809 -0.914,-6.76096 -3.39679,-8.45906 -2.29793,-1.57165 -5.70326,-0.96671 -8.30327,0 -2.93558,1.0915 -4.1053,5.53487 -7.171,6.15204 -6.479276,1.30439 -11.379893,0.0272 -12.832317,-6.53654 z"
             style="fill:#000000;stroke:#000000;stroke-width:1.03834832px;stroke-linecap:round;stroke-linejoin:round;stroke-opacity:1" />
        </g>
        <path
           style="fill:#d40000;fill-opacity:1;stroke:none"
           d="m 287.70088,757.09286 c 3.95415,2.80278 13.83856,38.0822 -1.06847,34.36446 l -20.91238,5.29168 c -2.62527,0.66431 -10.50803,-16.30881 -5.16894,-31.32429 4.93851,-13.8889 23.19563,-11.13465 27.14979,-8.33185 z"
           id="path4635"
           sodipodi:nodetypes="csssz" />
        <path
           style="fill:none;stroke:#000000;stroke-width:4;stroke-linecap:round;stroke-linejoin:round;stroke-miterlimit:4;stroke-opacity:1;stroke-dasharray:none"
           d="m 224.0502,791.20551 c 16.59864,23.23809 81.18545,-7.66219 80.3961,-8.76728"
           id="path4638"
           sodipodi:nodetypes="cc" />
      </g>
    </g>
    <path
       sodipodi:type="inkscape:offset"
       inkscape:radius="6.136838"
       inkscape:original=""
       xlink:href="#text4660"
       style="font-size:113.43876647999999818px;font-style:normal;font-variant:normal;font-weight:normal;font-stretch:normal;fill:#ffff00;fill-opacity:1;stroke:none;font-family:Electron;-inkscape-font-specification:Electron"
       id="path4720"
       inkscape:href="#text4660"
       d="m 358.0625,790.5 c -10.05356,9e-5 -18.81857,2.51519 -25.4375,7.96875 l -0.0312,0 c -6.57971,5.4311 -10.09376,13.52924 -10.09375,22.46875 -10e-6,6.10653 1.77567,11.84429 5.5,16.25 3.71852,4.39883 9.04989,7.27535 15.3125,8.90625 0.01,0.003 0.0215,-0.003 0.0312,0 l 20.46875,5.4375 a 6.1374516,6.1374516 0 0 0 0.0312,0 c 4.66388,1.20362 7.62988,2.76197 8.90625,3.90625 a 6.1374516,6.1374516 0 0 0 0.0312,0.0312 c 1.34097,1.18191 1.65622,1.86451 1.65625,3.59375 -4e-5,0.90829 -0.11057,1.699 -0.28125,2.40625 -0.0662,0.27403 -0.35917,1.02379 -1.03125,2.0625 -0.44319,0.64706 -1.02456,1.25594 -1.90625,1.84375 a 6.1374516,6.1374516 0 0 0 -0.0625,0.0312 c -0.63826,0.43765 -2.02167,1.10539 -4.15625,1.65625 -1.95991,0.50578 -4.49094,0.81251 -7.5,0.8125 -3.92662,10e-6 -7.06709,-0.54427 -9.4375,-1.40625 -2.46955,-0.91633 -3.90383,-1.95626 -4.65625,-2.84375 -1.21135,-1.47288 -1.97422,-2.84844 -2.40625,-4.09375 -0.47436,-1.36724 -0.75001,-2.86831 -0.75,-4.5625 l 0,-0.625 a 6.1374516,6.1374516 0 0 0 -6.125,-6.125 l -10.03125,0 a 6.1374516,6.1374516 0 0 0 -6.125,6.1875 c 0.0479,5.12388 0.88648,9.8935 2.59375,14.1875 a 6.1374516,6.1374516 0 0 0 0,0.0312 c 1.66872,4.07367 3.87776,7.6216 6.75,10.4375 a 6.1374516,6.1374516 0 0 0 0.0312,0.0625 c 2.65805,2.55384 5.78533,4.66884 9.3125,6.28125 3.35215,1.53242 6.75463,2.59101 10.15625,3.15625 0.0221,0.004 0.0404,0.0276 0.0625,0.0312 l 0,-0.0312 c 3.21898,0.56416 6.52622,0.84375 9.9375,0.84375 5.41463,0 10.38915,-0.61953 14.90625,-1.9375 0.0235,-0.007 0.039,-0.0246 0.0625,-0.0312 4.38092,-1.23096 8.13206,-2.86328 11.25,-5.1875 a 6.1374516,6.1374516 0 0 0 0.0312,0 c 2.84946,-2.13715 5.31247,-4.66499 7.25,-7.625 1.80379,-2.7559 3.10086,-5.57282 3.84375,-8.4375 0.009,-0.0313 0.0227,-0.0624 0.0312,-0.0937 0.70545,-2.60024 1.09366,-5.31625 1.09375,-8.09375 -9e-5,-6.33872 -2.07166,-12.32434 -6.03125,-16.96875 -0.0189,-0.0226 -0.0435,-0.04 -0.0625,-0.0625 -3.94858,-4.68317 -9.51451,-7.87417 -16.03125,-9.625 l -20.8125,-5.625 c -4.57817,-1.22079 -7.36317,-2.71724 -8.0625,-3.34375 -0.68255,-0.61142 -1.00001,-1.04428 -1,-2.9375 -10e-6,-2.57504 0.55303,-3.65693 2.59375,-5.1875 2.10726,-1.58692 5.16231,-2.62493 9.8125,-2.625 5.70016,7e-5 9.20327,1.2619 11.28125,2.96875 2.08061,1.70914 3.12364,3.728 3.1875,7.84375 a 6.1374516,6.1374516 0 0 0 6.125,6.03125 l 10.03125,0 a 6.1374516,6.1374516 0 0 0 6.125,-6.1875 c -0.0977,-9.46532 -3.54145,-17.92318 -10.21875,-23.59375 -6.67257,-5.66623 -15.68969,-8.18741 -26.15625,-8.1875 z m -293.25,1.3125 a 6.1374516,6.1374516 0 0 0 -6.125,6.125 l 0,82.75 a 6.1374516,6.1374516 0 0 0 6.125,6.125 l 10.03125,0 a 6.1374516,6.1374516 0 0 0 6.125,-6.125 l 0,-32.09375 11.5625,34.0625 a 6.1374516,6.1374516 0 0 0 5.8125,4.15625 l 11.09375,0 a 6.1374516,6.1374516 0 0 0 5.8125,-4.15625 l 11.375,-33.78125 0,31.8125 a 6.1374516,6.1374516 0 0 0 6.125,6.125 l 9.96875,0 a 6.1374516,6.1374516 0 0 0 6.125,-6.125 l 0,-82.75 a 6.1374516,6.1374516 0 0 0 -6.125,-6.125 l -14.625,0 A 6.1374516,6.1374516 0 0 0 122.28125,796 l -18.3125,54.84375 -18.65625,-54.875 A 6.1374516,6.1374516 0 0 0 79.5,791.8125 l -14.6875,0 z m 97.28125,0 a 6.1374516,6.1374516 0 0 0 -6.125,6.125 l 0,82.75 a 6.1374516,6.1374516 0 0 0 6.125,6.125 l 10.65625,0 a 6.1374516,6.1374516 0 0 0 6.125,-6.125 l 0,-82.75 a 6.1374516,6.1374516 0 0 0 -6.125,-6.125 l -10.65625,0 z m 29.1875,0 a 6.1374516,6.1374516 0 0 0 -6.125,6.125 l 0,82.75 a 6.1374516,6.1374516 0 0 0 6.125,6.125 l 51.4375,0 a 6.1374516,6.1374516 0 0 0 5.6875,-3.84375 6.1374516,6.1374516 0 0 0 5.6875,3.84375 l 10.59375,0 a 6.1374516,6.1374516 0 0 0 6.125,-6.125 l 0,-26.34375 6.4375,-6.46875 24.96875,36.28125 a 6.1374516,6.1374516 0 0 0 5.0625,2.65625 l 12.46875,0 a 6.1374516,6.1374516 0 0 0 5.03125,-9.625 L 293.6875,832.375 323.71875,802.28125 A 6.1374516,6.1374516 0 0 0 319.375,791.8125 l -13.625,0 a 6.1374516,6.1374516 0 0 0 -4.375,1.84375 l -30.5625,31.1875 0,-26.90625 a 6.1374516,6.1374516 0 0 0 -6.125,-6.125 l -10.59375,0 a 6.1374516,6.1374516 0 0 0 -6.125,6.125 l 0,70.28125 a 6.1374516,6.1374516 0 0 0 -5.25,-2.96875 l -34.71875,0 0,-67.3125 a 6.1374516,6.1374516 0 0 0 -6.125,-6.125 l -10.59375,0 z m 214.34375,0 a 6.1374516,6.1374516 0 0 0 -6.125,6.125 l 0,82.75 a 6.1374516,6.1374516 0 0 0 6.125,6.125 l 10.59375,0 a 6.1374516,6.1374516 0 0 0 6.125,-6.125 l 0,-31.5625 30.21875,0 0,31.5625 a 6.1374516,6.1374516 0 0 0 6.125,6.125 l 10.59375,0 a 6.1374516,6.1374516 0 0 0 5.4375,-3.28125 6.1374516,6.1374516 0 0 0 5.4375,3.28125 l 11.21875,0 a 6.1374516,6.1374516 0 0 0 5.78125,-4.0625 L 504.5,862 l 23.09375,0 7.125,20.6875 a 6.1374516,6.1374516 0 0 0 5.8125,4.125 l 11.8125,0 a 6.1374516,6.1374516 0 0 0 5.1875,-2.875 6.1374516,6.1374516 0 0 0 5.1875,2.875 l 10.59375,0 a 6.1374516,6.1374516 0 0 0 6.125,-6.125 l 0,-26.34375 6.4375,-6.46875 24.96875,36.28125 a 6.1374516,6.1374516 0 0 0 5.0625,2.65625 l 12.46875,0 a 6.1374516,6.1374516 0 0 0 5.59375,-3.59375 6.1374516,6.1374516 0 0 0 5.5625,3.59375 l 59.375,0 a 6.1374516,6.1374516 0 0 0 6.125,-6.125 l 0,-9.3125 a 6.1374516,6.1374516 0 0 0 -6.125,-6.125 l -42.71875,0 0,-16.125 38.9375,0 A 6.1374516,6.1374516 0 0 0 701.25,843 l 0,-9.25 a 6.1374516,6.1374516 0 0 0 -6.125,-6.125 l -38.9375,0 0,-14.15625 40.5625,0 a 6.1374516,6.1374516 0 0 0 6.125,-6.125 l 0,-9.40625 a 6.1374516,6.1374516 0 0 0 -6.125,-6.125 l -57.21875,0 a 6.1374516,6.1374516 0 0 0 -5.75,4.03125 A 6.1374516,6.1374516 0 0 0 628,791.8125 l -13.59375,0 a 6.1374516,6.1374516 0 0 0 -4.375,1.84375 l -30.59375,31.1875 0,-26.90625 a 6.1374516,6.1374516 0 0 0 -6.125,-6.125 l -10.59375,0 a 6.1374516,6.1374516 0 0 0 -6.125,6.125 l 0,76.34375 -27.53125,-78.375 a 6.1374516,6.1374516 0 0 0 -5.78125,-4.09375 l -13.625,0 a 6.1374516,6.1374516 0 0 0 -5.78125,4.0625 l -28.46875,79.84375 0,-77.78125 a 6.1374516,6.1374516 0 0 0 -6.125,-6.125 l -10.59375,0 a 6.1374516,6.1374516 0 0 0 -6.125,6.125 l 0,29.6875 -30.21875,0 0,-29.6875 a 6.1374516,6.1374516 0 0 0 -6.125,-6.125 l -10.59375,0 z m 227.78125,9.03125 0,76.34375 -31.09375,-44.8125 30.03125,-30.09375 a 6.1374516,6.1374516 0 0 0 1.0625,-1.4375 z M 516.125,827.9375 l 4.34375,12.90625 -9,0 4.65625,-12.90625 z" />
  </g>
</svg>
