<?xml version="1.0" encoding="UTF-8"?>
<!DOCTYPE svg PUBLIC "-//W3C//DTD SVG 1.1 Tiny//EN" "http://www.w3.org/Graphics/SVG/1.1/DTD/svg11-tiny.dtd">
<svg baseProfile="tiny" xmlns="http://www.w3.org/2000/svg" width="44px" height="44px" viewBox="0 0 44 44">
<metadata/>
<g transform="translate(0,-352.36218)">
<text style="font-size:40px;font-style:normal;font-weight:normal;fill:#008000;fill-opacity:1;stroke:none;stroke-width:1px;stroke-linecap:butt;stroke-linejoin:miter;stroke-opacity:1;font-family:Bitstream Vera Sans" transform="translate(0,352.36218)" x="18.051283" y="16.836292"/>
<path d="M 41.703154,367.47643 L 31.546904,371.16393 C 31.847779,372.08685 32.015654,373.07939 32.015654,374.10143 C 32.015654,374.28179 31.994396,374.45479 31.984404,374.63268 L 42.984404,374.63268 C 42.984404,373.43992 42.88048,372.31373 42.703154,371.22643 C 42.689036,371.14351 42.686993,371.05901 42.671904,370.97643 C 42.645806,370.82872 42.607806,370.68617 42.578154,370.53893 C 42.377995,369.545 42.106355,368.56761 41.734404,367.53893 C 41.726276,367.51675 41.711355,367.49857 41.703154,367.47643 z" style="fill:#008000"/>
<path d="M 33.515654,357.28893 L 27.578154,366.07018 C 28.605469,366.72274 29.492099,367.55931 30.203154,368.53893 L 38.734404,362.32018 C 37.223255,360.24456 35.647044,358.72359 33.515654,357.28893 z" style="fill:#008000"/>
<text style="font-size:40px;font-style:normal;font-weight:normal;fill:#008000;fill-opacity:1;stroke:none;stroke-width:1px;stroke-linecap:butt;stroke-linejoin:miter;stroke-opacity:1;font-family:Bitstream Vera Sans" x="18.066936" y="369.59396"/>
</g>
</svg>
