<?xml version="1.0" encoding="UTF-8" standalone="no"?>
<!-- Created with Inkscape (http://www.inkscape.org/) -->
<svg
   xmlns:dc="http://purl.org/dc/elements/1.1/"
   xmlns:cc="http://creativecommons.org/ns#"
   xmlns:rdf="http://www.w3.org/1999/02/22-rdf-syntax-ns#"
   xmlns:svg="http://www.w3.org/2000/svg"
   xmlns="http://www.w3.org/2000/svg"
   xmlns:sodipodi="http://sodipodi.sourceforge.net/DTD/sodipodi-0.dtd"
   xmlns:inkscape="http://www.inkscape.org/namespaces/inkscape"
   width="700"
   height="700"
   id="svg2883"
   version="1.1"
   inkscape:version="0.46"
   sodipodi:docname="milkshake-icon.svg"
   inkscape:export-filename="/home/javsmo/Desktop/images/milkshake-icon.png"
   inkscape:export-xdpi="90"
   inkscape:export-ydpi="90"
   sodipodi:version="0.32"
   inkscape:output_extension="org.inkscape.output.svg.inkscape">
  <defs
     id="defs2885">
    <inkscape:perspective
       sodipodi:type="inkscape:persp3d"
       inkscape:vp_x="0 : 526.18109 : 1"
       inkscape:vp_y="0 : 1000 : 0"
       inkscape:vp_z="744.09448 : 526.18109 : 1"
       inkscape:persp3d-origin="372.04724 : 350.78739 : 1"
       id="perspective2891" />
    <inkscape:perspective
       id="perspective2975"
       inkscape:persp3d-origin="0.5 : 0.33333333 : 1"
       inkscape:vp_z="1 : 0.5 : 1"
       inkscape:vp_y="0 : 1000 : 0"
       inkscape:vp_x="0 : 0.5 : 1"
       sodipodi:type="inkscape:persp3d" />
  </defs>
  <sodipodi:namedview
     id="base"
     pagecolor="#ffffff"
     bordercolor="#666666"
     borderopacity="1.0"
     inkscape:pageopacity="0.0"
     inkscape:pageshadow="2"
     inkscape:zoom="0.68142857"
     inkscape:cx="350"
     inkscape:cy="350"
     inkscape:document-units="mm"
     inkscape:current-layer="layer1"
     showgrid="false"
     inkscape:window-width="1280"
     inkscape:window-height="729"
     inkscape:window-x="0"
     inkscape:window-y="116"
     inkscape:window-maximized="1" />
  <metadata
     id="metadata2888">
    <rdf:RDF>
      <cc:Work
         rdf:about="">
        <dc:format>image/svg+xml</dc:format>
        <dc:type
           rdf:resource="http://purl.org/dc/dcmitype/StillImage" />
        <dc:title />
      </cc:Work>
    </rdf:RDF>
  </metadata>
  <g
     inkscape:label="Layer 1"
     inkscape:groupmode="layer"
     id="layer1"
     transform="translate(0,-352.36218)">
    <path
       sodipodi:type="arc"
       style="fill:#ffcc00;fill-opacity:1;stroke:none"
       id="path4746"
       sodipodi:cx="326.87012"
       sodipodi:cy="413.59952"
       sodipodi:rx="291.5889"
       sodipodi:ry="244.89317"
       d="m 618.45901,413.59952 a 291.5889,244.89317 0 1 1 -583.177791,0 291.5889,244.89317 0 1 1 583.177791,0 z"
       transform="matrix(0.99031646,0.75051271,-0.54975318,1.0704808,253.67279,14.29166)" />
    <path
       style="fill:#ffffff;fill-opacity:1;stroke:#000000;stroke-width:4;stroke-linecap:round;stroke-linejoin:round;stroke-miterlimit:4;stroke-opacity:1;stroke-dasharray:none"
       d="m 240.54109,540.73539 c 4.57148,-6.61513 13.87276,-8.26975 21.347,-11.23525 13.00645,-5.16049 26.60625,-9.17767 40.44694,-11.23527 26.77198,-3.97999 54.14909,-3.44644 81.17478,-1.96618 11.22507,0.61483 22.4804,1.92545 33.4249,4.49412 10.20397,2.39485 21.16602,4.13108 29.77345,10.11174 5.35579,3.72133 9.98032,9.09505 12.35879,15.1676 4.3451,11.09363 5.16886,24.12156 2.24706,35.67195 -33.0094,80.62844 -28.49264,188.9811 -75.83804,206.7288 -4.79565,4.7172 -9.8563,10.0532 -11.51613,16.572 -1.27816,5.0199 -0.92537,10.9745 1.68528,15.4485 7.84406,13.4429 29.09393,14.4253 37.91901,27.2455 3.95319,5.7429 7.76385,13.6877 5.33676,20.2235 -2.64893,7.1333 -11.96909,9.6073 -18.81907,12.9206 -7.14491,3.4559 -14.89982,5.8621 -22.75141,7.022 -15.37551,2.2715 -31.27315,2.1369 -46.62633,-0.2809 -9.50643,-1.497 -19.59885,-3.2514 -27.52641,-8.7073 -3.84242,-2.6445 -7.38438,-6.4814 -8.70733,-10.9544 -0.82703,-2.7962 -0.47569,-6.1063 0.84266,-8.7073 7.43491,-14.6682 27.31211,-19.4282 36.79548,-32.8632 2.85755,-4.0482 5.32146,-8.8168 5.61763,-13.7632 0.29596,-4.9427 -1.0639,-10.2887 -3.93233,-14.3249 -4.01688,-5.6521 -10.74757,-9.0956 -17.13379,-11.797 -45.75463,-39.3505 -49.40418,-144.05134 -78.36595,-202.23475 -1.73436,-5.15958 -1.2711,-10.84986 -1.12353,-16.29114 0.2481,-9.14771 -1.83195,-19.7172 3.37058,-27.24552 z"
       id="path4282"
       sodipodi:nodetypes="cssssssccsssssssssssssccss" />
    <path
       style="fill:#ffaacc;stroke:none"
       d="m 258.34881,568.00102 c 6.56742,63.33052 23.05082,114.74267 43.69492,169.21849 5.1622,13.62209 8.5174,29.78909 19.86134,38.92819 8.10312,6.5282 19.79983,7.362 30.18921,7.9445 10.95596,0.6143 22.93556,0.481 32.57257,-4.7667 9.8891,-5.385 17.12449,-15.3937 22.24468,-25.4225 17.78953,-34.84369 19.49831,-75.86017 26.21696,-114.40121 3.80201,-21.80991 7.86472,-44.70894 7.94453,-65.93961 0.0232,-6.20482 -6.8529,-10.71442 -11.9168,-14.30014 -9.91572,-7.02129 -22.27217,-10.20834 -34.16148,-12.71126 -17.65183,-3.71601 -35.98888,-3.59377 -54.02281,-3.17782 -20.23194,0.46665 -41.70937,-1.45565 -60.37843,6.35563 -8.85214,3.7038 -23.23446,8.72785 -22.24469,18.27243 z"
       id="path4338"
       sodipodi:nodetypes="cssssssssssss" />
    <g
       id="g4340"
       transform="matrix(1.2576755,0,0,1.2576755,-216.7341,-204.17872)">
      <path
         style="fill:none;stroke:#ffffff;stroke-width:3.73722982;stroke-linecap:round;stroke-linejoin:round;stroke-miterlimit:4;stroke-opacity:1;stroke-dasharray:none"
         d="m 485.03026,663.97502 c 0,0 -10.42915,73.31252 -7.07303,100.61007 0.48444,3.94029 5.52354,6.54068 9.03777,6.20503 3.97803,-0.37995 7.72316,-4.61246 9.03777,-8.86433 12.39328,-40.08415 25.54151,-140.94273 25.54151,-140.94273"
         id="path4336"
         sodipodi:nodetypes="cssss" />
      <path
         style="fill:none;stroke:#ffffff;stroke-width:4;stroke-linecap:round;stroke-linejoin:round;stroke-miterlimit:4;stroke-opacity:1;stroke-dasharray:none"
         d="m 374.28759,604.54771 c -5.2445,1.0489 27.38849,16.80247 52.26013,18.31338 26.16684,1.58959 53.05421,3.59345 78.61353,-2.23334 12.36746,-2.48471 25.99404,-5.92489 27.24674,-20.10005"
         id="path4330"
         sodipodi:nodetypes="cscc" />
      <path
         style="fill:none;stroke:#ffffff;stroke-width:4;stroke-linecap:round;stroke-linejoin:round;stroke-miterlimit:4;stroke-opacity:1;stroke-dasharray:none"
         d="m 386.93099,630.19478 c 0,0 20.21428,94.00421 39.52352,135.37208"
         id="path4332"
         sodipodi:nodetypes="cs" />
      <path
         sodipodi:nodetypes="cs"
         id="path4334"
         d="m 441.88746,637.77498 c 0,0 3.15883,94.00421 12.36113,134.10872"
         style="fill:none;stroke:#ffffff;stroke-width:4;stroke-linecap:round;stroke-linejoin:round;stroke-miterlimit:4;stroke-opacity:1;stroke-dasharray:none" />
    </g>
    <path
       style="fill:none;stroke:#000000;stroke-width:4;stroke-linecap:round;stroke-linejoin:round;stroke-miterlimit:4;stroke-opacity:1;stroke-dasharray:none"
       d="m 248.96753,548.60008 c -6.59588,1.31917 34.44584,21.13205 65.72629,23.03229 32.90939,1.99919 66.72498,4.5194 98.87031,-2.80882 15.55426,-3.12496 32.69207,-7.45159 34.26756,-25.27934"
       id="path4296"
       sodipodi:nodetypes="cscc" />
    <g
       id="g4493"
       style="stroke-width:3;stroke-miterlimit:4;stroke-dasharray:none"
       transform="matrix(0.8829799,0,0,0.8829799,-88.495666,68.553331)">
      <path
         sodipodi:nodetypes="cc"
         id="path4290"
         d="m 384.73158,614.28631 c 5.64505,-0.94291 13.92706,2.90433 17.17775,9.54318"
         style="fill:none;stroke:#000000;stroke-width:3;stroke-linecap:round;stroke-linejoin:round;stroke-miterlimit:4;stroke-opacity:1;stroke-dasharray:none" />
      <path
         sodipodi:nodetypes="cc"
         id="path4292"
         d="m 419.08708,628.91919 c 10.91997,-3.23659 15.22235,-16.39962 45.17112,8.90698"
         style="fill:none;stroke:#000000;stroke-width:3;stroke-linecap:round;stroke-linejoin:round;stroke-miterlimit:4;stroke-opacity:1;stroke-dasharray:none" />
      <path
         sodipodi:nodetypes="cc"
         id="path4294"
         d="m 500.52232,633.37269 c 18.15829,-8.72227 35.0323,-21.29738 62.98507,-0.63622"
         style="fill:none;stroke:#000000;stroke-width:3;stroke-linecap:round;stroke-linejoin:round;stroke-miterlimit:4;stroke-opacity:1;stroke-dasharray:none" />
    </g>
    <g
       id="g4498"
       style="stroke:#000000;stroke-width:3;stroke-miterlimit:4;stroke-opacity:1;stroke-dasharray:none"
       transform="matrix(0.8829799,0,0,0.8829799,-88.495666,68.553331)">
      <path
         sodipodi:nodetypes="csss"
         id="path4284"
         d="m 395.54721,579.2946 c 0,0 23.39384,129.39652 50.89703,188.31899 5.79784,12.42122 10.02665,31.41832 23.53987,33.71927 6.44033,1.09663 15.90532,-11.45183 15.90532,-11.45183"
         style="fill:none;stroke:#000000;stroke-width:3;stroke-linecap:round;stroke-linejoin:round;stroke-miterlimit:4;stroke-opacity:1;stroke-dasharray:none" />
      <path
         sodipodi:nodetypes="csss"
         id="path4286"
         d="m 471.89275,604.10689 c 4.66366,-0.42397 5.01902,127.56697 20.35881,183.22929 1.79682,6.51998 8.51597,13.72621 15.26911,13.36048 7.19363,-0.38959 14.6329,-15.90533 14.6329,-15.90533"
         style="fill:none;stroke:#000000;stroke-width:3;stroke-linecap:round;stroke-linejoin:round;stroke-miterlimit:4;stroke-opacity:1;stroke-dasharray:none" />
      <path
         sodipodi:nodetypes="cssss"
         id="path4288"
         d="m 539.96751,640.37102 c 0,0 -16.88566,105.23615 -11.45183,144.42031 0.78435,5.65607 8.94308,9.38879 14.6329,8.90699 6.44077,-0.5454 12.50444,-6.62094 14.6329,-12.72427 20.06575,-57.53864 41.35384,-202.31567 41.35384,-202.31567"
         style="fill:none;stroke:#000000;stroke-width:3;stroke-linecap:round;stroke-linejoin:round;stroke-miterlimit:4;stroke-opacity:1;stroke-dasharray:none" />
    </g>
    <text
       xml:space="preserve"
       style="font-size:59.35611725px;font-style:normal;font-weight:normal;fill:#000000;fill-opacity:1;stroke:none;stroke-width:1px;stroke-linecap:butt;stroke-linejoin:miter;stroke-opacity:1;font-family:Bitstream Vera Sans"
       x="165.61513"
       y="417.74307"
       id="text2401"
       transform="scale(0.9244785,1.081691)"><tspan
         sodipodi:role="line"
         id="tspan2403"
         x="165.61513"
         y="417.74307">milkshake</tspan></text>
  </g>
</svg>
